# xmcd CD database file
#
# Track frame offsets:
#	150
#	50607
#	121992
#	153965
#	176782
#	195522
#	236320
#	249020
#	267887
#	282167
#
# Disc length: 4133 seconds
#
# Revision: 0
# Processed by: cddbd v1.4PL0 Copyright (c) Steve Scherf et al.
# Submitted via: Feurio! 1.63 - http://www.feurio.com
#
DISCID=7d10230a
DTITLE=Derek and The Dominos w- Skydog - Soulmates [CD2]
DYEAR=1970
DGENRE=blues
TTITLE0=Key to the Highway
TTITLE1=Let it Rain
TTITLE2=Keep on Growing
TTITLE3=Bell Bottom Blues
TTITLE4=It's too Late
TTITLE5=Got to get Better in a Little While
TTITLE6=Matchbox
TTITLE7=Matchbox
TTITLE8=Matchbox
TTITLE9=Blues Power
EXTD=
EXTT0=
EXTT1=
EXTT2=
EXTT3=
EXTT4=
EXTT5=
EXTT6=
EXTT7=
EXTT8=
EXTT9=
PLAYORDER=
